<?xml version="1.0" encoding="UTF-8"?>
<svg width="173px" height="58px" viewBox="0 0 173 58" version="1.1" xmlns="http://www.w3.org/2000/svg" xmlns:xlink="http://www.w3.org/1999/xlink">
    <!-- Generator: Sketch 51.1 (57501) - http://www.bohemiancoding.com/sketch -->
    <title>Coolulu Logo</title>
    <desc>Created with Sketch.</desc>
    <defs></defs>
    <g id="Page-1" stroke="none" stroke-width="1" fill="none" fill-rule="evenodd">
        <g id="Coolulu-Home" transform="translate(-28.000000, -20.000000)">
            <g id="Coolulu-Logo" transform="translate(32.000000, 22.000000)">
                <g id="Group-3">
                    <path d="M46.0357404,41.7848776 C46.1814758,41.3235298 46.2600893,40.8322578 46.2600893,40.3225806 C46.2600893,37.6502351 44.0989052,35.483871 41.4329495,35.483871 C39.7002812,35.483871 38.180829,36.3989455 37.3293253,37.7732721 C33.9243969,34.7447195 31.77867,30.3251539 31.77867,25.4032258 C31.77867,16.2727118 39.1627156,8.87096774 48.2713975,8.87096774 C57.3800793,8.87096774 64.764125,16.2727118 64.764125,25.4032258 C64.764125,34.5337398 57.3800793,41.9354839 48.2713975,41.9354839 C47.5131387,41.9354839 46.7668314,41.8841909 46.0357404,41.7848776 Z M38.8182488,35.0806452 C39.5958192,35.0806452 40.2261646,34.448789 40.2261646,33.6693548 C40.2261646,32.8899207 39.5958192,32.2580645 38.8182488,32.2580645 C38.0406784,32.2580645 37.410333,32.8899207 37.410333,33.6693548 C37.410333,34.448789 38.0406784,35.0806452 38.8182488,35.0806452 Z M44.8521735,33.4677419 C45.4075809,33.4677419 45.8578276,33.0164161 45.8578276,32.4596774 C45.8578276,31.9029388 45.4075809,31.4516129 44.8521735,31.4516129 C44.2967661,31.4516129 43.8465194,31.9029388 43.8465194,32.4596774 C43.8465194,33.0164161 44.2967661,33.4677419 44.8521735,33.4677419 Z M48.2713975,39.516129 C48.7157234,39.516129 49.0759208,39.1550683 49.0759208,38.7096774 C49.0759208,38.2642865 48.7157234,37.9032258 48.2713975,37.9032258 C47.8270715,37.9032258 47.4668742,38.2642865 47.4668742,38.7096774 C47.4668742,39.1550683 47.8270715,39.516129 48.2713975,39.516129 Z" id="Oval" fill="#00CCF0"></path>
                    <path d="M15.9931185,10.0673387 C20.6682034,10.0673387 24.5041704,11.6294355 27.4410827,14.8137097 L25.6429731,16.8564516 C23.1256197,14.2129032 19.8890225,12.891129 15.9931185,12.891129 C12.3369624,12.891129 9.22023918,14.1528226 6.76282279,16.6762097 C4.30540639,19.1395161 3.10666669,22.2637097 3.10666669,25.9887097 C3.10666669,29.7137097 4.30540639,32.8379032 6.76282279,35.3612903 C9.22023918,37.8245968 12.3369624,39.0862903 15.9931185,39.0862903 C19.8890225,39.0862903 23.1256197,37.7645161 25.6429731,35.1209677 L27.4410827,37.1637097 C24.5041704,40.3479839 20.6682034,41.9100806 15.9931185,41.9100806 C11.4978446,41.9100806 7.72181455,40.4080645 4.66502831,37.3439516 C1.60824206,34.2798387 0.109817429,30.4947581 0.109817429,25.9887097 C0.109817429,21.4826613 1.60824206,17.6975806 4.66502831,14.6334677 C7.72181455,11.5693548 11.4978446,10.0673387 15.9931185,10.0673387 Z" id="c" fill="#FFFFFF"></path>
                    <path d="M94.5192711,41.9354839 L91.5224218,41.9354839 L91.5224218,0.0592741935 L94.5192711,0.0592741935 L94.5192711,41.9354839 Z M100.308695,30.4600806 L100.308695,11.6548387 L103.305544,11.6548387 L103.305544,30.1596774 C103.305544,36.4080645 106.841826,39.7725806 112.775588,39.7725806 C118.709349,39.7725806 122.245631,36.4080645 122.245631,30.1596774 L122.245631,11.6548387 L125.24248,11.6548387 L125.24248,30.4600806 C125.24248,38.2104839 120.387585,42.596371 112.775588,42.596371 C105.16359,42.596371 100.308695,38.2104839 100.308695,30.4600806 Z M134.028753,41.9354839 L131.031904,41.9354839 L131.031904,0.0592741935 L134.028753,0.0592741935 L134.028753,41.9354839 Z M139.818177,30.4600806 L139.818177,11.6548387 L142.815026,11.6548387 L142.815026,30.1596774 C142.815026,36.4080645 146.351308,39.7725806 152.28507,39.7725806 C158.218831,39.7725806 161.755113,36.4080645 161.755113,30.1596774 L161.755113,11.6548387 L164.751963,11.6548387 L164.751963,30.4600806 C164.751963,38.2104839 159.897067,42.596371 152.28507,42.596371 C144.673073,42.596371 139.818177,38.2104839 139.818177,30.4600806 Z" id="lulu" fill="#FFFFFF"></path>
                    <ellipse id="Oval-Copy-6" fill="#00CCF0" cx="45.2544351" cy="45.766129" rx="1.81017741" ry="1.81451613"></ellipse>
                    <ellipse id="Oval-Copy-7" fill="#00CCF0" cx="39.2205105" cy="48.5887097" rx="1.00565411" ry="1.00806452"></ellipse>
                    <path d="M41.4329495,43.1451613 C42.9880903,43.1451613 44.248781,41.8814489 44.248781,40.3225806 C44.248781,38.7637124 42.9880903,37.5 41.4329495,37.5 C39.8778087,37.5 38.617118,38.7637124 38.617118,40.3225806 C38.617118,41.8814489 39.8778087,43.1451613 41.4329495,43.1451613 Z" id="Path" fill="#00CCF0"></path>
                    <path d="M72.9758423,9.2194188 C72.8672749,9.62248706 72.8093579,10.0463992 72.8093579,10.483871 C72.8093579,13.1562165 74.9705419,15.3225806 77.6364976,15.3225806 C79.0700587,15.3225806 80.357664,14.6961716 81.2417653,13.7015189 C84.2331891,16.6941838 86.0839922,20.8320477 86.0839922,25.4032258 C86.0839922,34.5337398 78.6999466,41.9354839 69.5912647,41.9354839 C60.4825828,41.9354839 53.0985372,34.5337398 53.0985372,25.4032258 C53.0985372,16.2727118 60.4825828,8.87096774 69.5912647,8.87096774 C70.7513279,8.87096774 71.8834174,8.99102442 72.9758423,9.2194188 Z M79.8489367,18.9516129 C80.6265071,18.9516129 81.2568524,18.3197567 81.2568524,17.5403226 C81.2568524,16.7608885 80.6265071,16.1290323 79.8489367,16.1290323 C79.0713663,16.1290323 78.4410209,16.7608885 78.4410209,17.5403226 C78.4410209,18.3197567 79.0713663,18.9516129 79.8489367,18.9516129 Z M73.815012,19.3548387 C74.3704194,19.3548387 74.8206661,18.9035129 74.8206661,18.3467742 C74.8206661,17.7900355 74.3704194,17.3387097 73.815012,17.3387097 C73.2596046,17.3387097 72.8093579,17.7900355 72.8093579,18.3467742 C72.8093579,18.9035129 73.2596046,19.3548387 73.815012,19.3548387 Z M70.7980496,13.3064516 C71.2423756,13.3064516 71.6025729,12.9453909 71.6025729,12.5 C71.6025729,12.0546091 71.2423756,11.6935484 70.7980496,11.6935484 C70.3537237,11.6935484 69.9935263,12.0546091 69.9935263,12.5 C69.9935263,12.9453909 70.3537237,13.3064516 70.7980496,13.3064516 Z" id="Oval-Copy" fill="#EF1716"></path>
                    <path d="M58.9313311,38.1339506 C55.3632221,35.1014197 53.0985372,30.5751106 53.0985372,25.5185882 C53.0985372,20.4620659 55.3632221,15.9357568 58.9313311,12.9032258 C62.4994401,15.9357568 64.764125,20.4620659 64.764125,25.5185882 C64.764125,30.5751106 62.4994401,35.1014197 58.9313311,38.1339506 Z" id="Oval-Copy" fill="#001623"></path>
                    <g id="Group-4" transform="translate(76.429713, 7.258065) scale(-1, -1) translate(-76.429713, -7.258065) translate(72.004835, 1.209677)" fill="#EF1716">
                        <ellipse id="Oval-Copy-6" cx="7.0395788" cy="8.26612903" rx="1.81017741" ry="1.81451613"></ellipse>
                        <ellipse id="Oval-Copy-7" cx="1.00565411" cy="11.0887097" rx="1.00565411" ry="1.00806452"></ellipse>
                        <path d="M3.21809317,5.64516129 C4.77323397,5.64516129 6.03392469,4.38144889 6.03392469,2.82258065 C6.03392469,1.2637124 4.77323397,0 3.21809317,0 C1.66295236,0 0.402261646,1.2637124 0.402261646,2.82258065 C0.402261646,4.38144889 1.66295236,5.64516129 3.21809317,5.64516129 Z" id="Path"></path>
                    </g>
                </g>
            </g>
        </g>
    </g>
</svg>