<svg xmlns="http://www.w3.org/2000/svg" width="1170" height="352" viewBox="0 0 1170 352">
    <g fill="none" fill-rule="evenodd">
        <path fill="#00CCF0" d="M326.714 295.837a34.24 34.24 0 0 0 1.592-10.353c0-18.92-15.337-34.258-34.258-34.258-12.296 0-23.08 6.479-29.123 16.209-24.165-21.442-39.393-52.733-39.393-87.58 0-64.644 52.405-117.049 117.049-117.049s117.048 52.405 117.048 117.049-52.404 117.048-117.048 117.048c-5.382 0-10.678-.363-15.867-1.066zm-51.222-47.466c5.518 0 9.992-4.474 9.992-9.992 0-5.518-4.474-9.992-9.992-9.992-5.518 0-9.992 4.474-9.992 9.992 0 5.518 4.474 9.992 9.992 9.992zm42.823-11.42a7.137 7.137 0 1 0 0-14.274 7.137 7.137 0 0 0 0 14.275zm24.266 42.823a5.71 5.71 0 1 0 0-11.42 5.71 5.71 0 0 0 0 11.42z"/>
        <path fill="#FFF" d="M113.503 71.277c33.179 0 60.402 11.06 81.246 33.604l-12.762 14.463c-17.865-18.717-40.835-28.075-68.484-28.075-25.948 0-48.067 8.933-65.507 26.799-17.44 17.44-25.948 39.56-25.948 65.932 0 26.373 8.507 48.492 25.948 66.358 17.44 17.44 39.559 26.373 65.507 26.373 27.649 0 50.619-9.358 68.484-28.075l12.762 14.463c-20.844 22.545-48.067 33.604-81.246 33.604-31.903 0-58.702-10.634-80.395-32.328C11.414 242.701.779 215.903.779 184s10.635-58.701 32.329-80.395C54.8 81.911 81.6 71.277 113.503 71.277zM670.8 296.903h-21.268V.42H670.8v296.483zm41.088-81.246V82.517h21.268V213.53c0 44.238 25.097 68.059 67.209 68.059s67.209-23.82 67.209-68.06V82.517h21.268v133.141c0 54.873-34.455 85.925-88.477 85.925-54.022 0-88.477-31.052-88.477-85.925zm239.31 81.246h-21.269V.42h21.269v296.483zm41.087-81.246V82.517h21.269V213.53c0 44.238 25.097 68.059 67.209 68.059 42.111 0 67.208-23.82 67.208-68.06V82.517h21.269v133.141c0 54.873-34.455 85.925-88.477 85.925-54.023 0-88.478-31.052-88.478-85.925z"/>
        <circle cx="321.169" cy="324.024" r="12.847" fill="#00CCF0"/>
        <circle cx="278.347" cy="344.008" r="7.137" fill="#00CCF0"/>
        <path fill="#00CCF0" d="M294.048 305.468c11.037 0 19.984-8.947 19.984-19.984 0-11.037-8.947-19.984-19.984-19.984-11.036 0-19.983 8.947-19.983 19.984 0 11.037 8.947 19.984 19.983 19.984z"/>
        <path fill="#EF1716" d="M517.907 65.273a34.301 34.301 0 0 0-1.181 8.953c0 18.92 15.338 34.258 34.258 34.258 10.174 0 19.312-4.435 25.586-11.477 21.23 21.188 34.365 50.484 34.365 82.848 0 64.644-52.404 117.048-117.048 117.048S376.84 244.5 376.84 179.855 429.243 62.806 493.887 62.806c8.233 0 16.267.85 24.02 2.467zm48.778 68.904c5.519 0 9.992-4.473 9.992-9.992 0-5.518-4.473-9.991-9.992-9.991-5.518 0-9.991 4.473-9.991 9.991 0 5.519 4.473 9.992 9.991 9.992zm-42.822 2.855a7.137 7.137 0 1 0 0-14.274 7.137 7.137 0 0 0 0 14.274zM502.452 94.21a5.71 5.71 0 1 0 0-11.42 5.71 5.71 0 0 0 0 11.42z"/>
        <path fill="#001623" d="M418.234 269.988c-25.323-21.47-41.395-53.516-41.395-89.316 0-35.8 16.072-67.847 41.395-89.317 25.323 21.47 41.395 53.516 41.395 89.317 0 35.8-16.072 67.846-41.395 89.316z"/>
        <g fill="#EF1716" transform="rotate(180 286.911 47.105)">
            <circle cx="49.96" cy="58.524" r="12.847"/>
            <circle cx="7.137" cy="78.508" r="7.137"/>
            <path d="M22.839 39.968c11.036 0 19.984-8.947 19.984-19.984C42.823 8.947 33.875 0 22.839 0 11.802 0 2.855 8.947 2.855 19.984c0 11.037 8.947 19.984 19.984 19.984z"/>
        </g>
    </g>
</svg>
